# xmcd
#
# Track frame offsets: 
#        150
#        12776
#        27130
#        42484
#        57057
#        71553
#        82123
#        98228
#        111877
#        126487
#
# Disc length: 1838 seconds
#
# Revision: 0
# Processed by: cddbd v1.5.1PL0 Copyright (c) Steve Scherf et al.
# Submitted via: ExactAudioCopy v0.95a5
#
DISCID=83072c0a
DTITLE=Eli Barsi - Pinto Pal
DYEAR=2001
DGENRE=Country
TTITLE0=Give Me a Pinto Pal
TTITLE1=Don't Fence Me In
TTITLE2=Bullriding Son of a Gun
TTITLE3=The Great Roundup
TTITLE4=Santa Fe
TTITLE5=Wide Rollin' Plains
TTITLE6=Heartland
TTITLE7=Prairie Girl
TTITLE8=The Place Where I Worship
TTITLE9=Peace in the Valley
EXTD=
EXTT0=
EXTT1=
EXTT2=
EXTT3=
EXTT4=
EXTT5=
EXTT6=
EXTT7=
EXTT8=
EXTT9=
PLAYORDER=
